<svg xmlns="http://www.w3.org/2000/svg" xmlns:xlink="//www.w3.org/1999/xlink" width="336" height="647" viewBox="0 0 336 647"><defs><path id="a" d="M8 44.003C8 21.91 25.905 4 48.002 4h239.996C310.09 4 328 21.905 328 44.003v558.994C328 625.09 310.095 643 287.998 643H48.002C25.91 643 8 625.095 8 602.997V44.003zm14.98 11.362v515.728h290.396V55.365H22.98z"/><circle id="b" cx="168" cy="608" r="19"/></defs><g fill="none" fill-rule="evenodd"><rect width="10" height="32" y="63" fill="#DDD7D7" rx="4"/><path fill="#FFF" d="M6 42.01C6 19.913 23.91 2 45.993 2h244.014C312.095 2 330 19.91 330 42.01v562.98c0 22.097-17.91 40.01-39.993 40.01H45.993C23.905 645 6 627.09 6 604.99V42.01zm16.98 13.355v515.728h290.396V55.365H22.98z"/><use fill="#FFF" xlink:href="#a"/><path stroke="#DDD7D7" stroke-width="4" d="M6 44.003v558.994C6 626.198 24.803 645 48.002 645h239.996c23.2 0 42.002-18.804 42.002-42.003V44.003C330 20.802 311.197 2 287.998 2H48.002C24.802 2 6 20.804 6 44.003zm18.98 13.362h286.396v511.728H24.98V57.365z"/><rect width="56" height="4" x="140" y="28" fill="#DDD7D7" rx="2"/><path fill="#DDD7D7" d="M20 58.004A5.995 5.995 0 0 1 25.993 52h284.676a5.998 5.998 0 0 1 5.993 6.004v510.532a5.995 5.995 0 0 1-5.993 6.004H25.993A5.998 5.998 0 0 1 20 568.536V58.004zm2.98-2.64v515.729h290.396V55.365H22.98z"/><use fill="#FFF" xlink:href="#b"/><circle cx="168" cy="608" r="21" stroke="#DDD7D7" stroke-width="4"/></g></svg>